<svg width="1884" height="264" viewBox="0 0 1884 264" fill="none" xmlns="http://www.w3.org/2000/svg">
<path d="M262.163 212.646L261.451 211.539L260.758 210.431L260.078 209.298L259.411 208.165L258.756 207.019L258.113 205.861L257.477 204.69L256.854 203.513L256.243 202.323L255.651 201.121L255.059 199.919L254.48 198.692L253.925 197.439L253.371 196.212L252.836 194.947L252.313 193.681L251.797 192.404L251.299 191.113L250.802 189.81L250.323 188.495L249.851 187.167L249.397 185.826L248.95 184.473L248.516 183.119L248.107 181.766L247.703 180.4L247.313 179.047L246.935 177.681L246.576 176.29L246.223 174.924L245.896 173.546L245.568 172.167L245.26 170.789L244.964 169.41L244.674 168.019L244.41 166.628L244.145 165.237L243.912 163.833L243.685 162.455L243.465 161.039L243.264 159.635L243.081 158.232L242.911 156.809L242.754 155.418L242.609 153.989L242.476 152.573L242.357 151.157L242.25 149.74L242.162 148.299L242.086 146.883L242.023 145.454L241.973 144.006L241.935 142.571L241.916 141.136V139.701L241.928 137.341L241.985 134.955L242.08 132.594L242.206 130.247L242.369 127.899L242.577 125.576L242.816 123.26L243.1 120.963L243.408 118.652L243.767 116.374L244.158 114.089L244.58 111.842L245.046 109.582L245.55 107.329L246.085 105.101L246.658 102.885L247.269 100.676L247.93 98.4664L248.604 96.276L249.328 94.092L250.096 91.9204L250.89 89.7677L251.728 87.6213L252.59 85.4748L253.497 83.3475L254.442 81.2326L255.412 79.1301L256.438 77.0404L257.49 74.9443L258.586 72.8736L259.707 70.8215L260.878 68.7696L262.075 66.7366L263.315 64.7412L264.575 62.7584L265.878 60.8072L267.207 58.8938L268.574 56.9929L269.972 55.1046L271.401 53.2665L271.842 52.7191L275.526 6.66308C255.607 6.90226 243.61 7.03439 239.466 7.03439C230.354 7.03439 218.287 6.90856 203.142 6.66308C203.142 20.945 202.449 46.7015 201.07 83.9831C199.684 121.252 198.305 150.219 196.983 170.871L186.119 149.835L107.254 6.65674C88.3428 6.89592 73.7071 7.02824 63.272 7.02824C48.6993 7.02824 31.9161 6.90222 12.8785 6.65674V35.4284L10.8695 88.3702L3.70288 219.721L0 258.444C18.5401 258.199 31.1667 258.085 37.9555 258.085C45.9408 258.085 57.497 258.199 72.7057 258.444L74.5887 184.844L78.424 97.3838C84.3878 109.343 90.2319 120.239 95.8871 130.253C104.496 145.995 113.86 162.436 124.037 179.683L155.015 232.266C158.095 237.673 162.805 246.441 169.216 258.451C189.577 258.205 205.541 258.092 217.034 258.092C230.92 258.092 245.814 258.205 261.779 258.451L262.906 214.39L262.937 213.786L262.887 213.71L262.169 212.615L262.163 212.646Z" fill="#FF6507"/>
<path d="M468.431 233.29L506.023 162.324C507.295 140.755 508.566 123.334 509.832 110.201C495.075 110.472 474.569 110.585 448.454 110.585C433.194 110.585 417.108 110.472 400.204 110.201C400.204 118.247 400.078 124.562 399.826 129.177C399.574 133.798 399.379 137.412 399.322 139.867L398 162.639L417.618 162.444C419.129 162.444 423.863 162.639 431.871 163.016L429.788 203.234C416.73 206.457 404.743 208.05 393.769 208.05C380.586 208.05 368.605 205.45 357.884 200.275C347.156 195.087 339.342 187.501 334.419 177.572C329.502 167.65 327.04 156.324 327.04 143.544C327.04 131.097 329.181 119.261 333.538 108.01C337.825 96.7472 344.322 87.0768 353.023 78.993C361.667 70.9533 372.074 64.9472 384.124 61.0312C396.231 57.1719 409.037 55.2139 422.598 55.2139C427.773 55.2139 433.634 55.5162 440.264 56.1584C446.824 56.7313 453.825 57.6756 461.141 59.004C468.456 60.2569 474.897 61.7175 480.38 63.2411C485.87 64.8214 493.003 67.0247 501.887 70.0026C500.306 47.8604 499.488 27.8211 499.488 9.80256C466.693 3.28644 436.851 0 409.861 0C372.899 0 342.686 6.2643 319.347 18.7803C296.009 31.3593 278.091 48.3831 265.669 69.8076C253.242 91.3077 246.996 114.583 246.996 139.684C246.996 154.87 249.332 169.539 253.934 183.767C258.536 198.002 265.103 210.266 273.615 220.629C282.126 231.005 292.729 239.227 305.465 245.296C318.201 251.308 332.65 255.734 348.799 258.448C364.947 261.161 381.411 262.502 398.189 262.502C408.407 262.502 420.01 262.061 433.061 261.104C440.528 260.569 447.227 259.99 453.453 259.386L468.431 233.302V233.29Z" fill="#044689"/>
<path d="M614.788 102.084H614.782V102.09L614.788 102.084Z" fill="#FF6507"/>
<path d="M748.587 259.458H749.109H749.676H750.979L751.697 259.471H752.471L753.296 259.483H755.103L756.079 259.496L757.111 259.509L758.194 259.521H759.321L760.505 259.546H761.739L763.023 259.565L764.358 259.584L765.743 259.597L767.178 259.616L768.658 259.635L770.2 259.653H771.787L773.423 259.685L775.123 259.704L776.861 259.716L778.662 259.742L780.5 259.767L782.408 259.779L784.353 259.805H785.184L775.243 234.716L775.218 234.665L775.148 234.483L775.174 234.552L718.26 80.4758L718.317 80.6331L718.247 80.4443L690.747 1.69678L689.394 1.72195L687.927 1.74712L686.466 1.77229L684.993 1.79745L683.507 1.81014L682.015 1.84164L680.517 1.85413L679.018 1.86681L677.495 1.89198L675.978 1.91081L674.441 1.92349L672.905 1.93598L671.363 1.95481L669.814 1.96749L668.246 1.97998L666.679 1.99266L665.105 2.00534L663.525 2.02417H661.932H660.326H658.721L657.109 2.043H655.478L653.842 2.05568H652.205L650.555 2.06817H648.899L647.231 2.08085H639.116L638.02 2.06817H635.729L634.514 2.05568H633.28L632.001 2.043L630.698 2.03051H629.351H627.979H626.556L625.108 2.00534L623.622 1.99266L622.092 1.97998L620.537 1.96749L618.944 1.95481L617.314 1.93598L615.651 1.92349L613.945 1.91081L612.208 1.89198L610.439 1.86681L608.625 1.85413L606.787 1.84164L604.911 1.81014L602.997 1.79745L601.045 1.77229L599.062 1.74712L597.035 1.72195L594.983 1.69678H594.252L593.818 2.58443L593.32 3.63577L592.829 4.6558L592.345 5.66929L591.872 6.66415L591.4 7.64633L590.94 8.60948L590.494 9.55381L590.046 10.4793L589.606 11.3985L589.178 12.2988L588.75 13.1864L588.334 14.0553L587.925 14.9179L587.516 15.7552L587.125 16.5737L586.735 17.3922L586.351 18.1728L585.973 18.9598L585.595 19.7026L585.237 20.4519L584.884 21.1695L584.532 21.881L584.185 22.5861L583.858 23.2597L583.524 23.9208L583.209 24.5693L582.895 25.2052L582.58 25.8095L582.29 26.4266L582.001 27.0121L571.455 48.0084L571.443 48.0462L571.354 48.2099L571.386 48.1469L472.253 235.314L472.209 235.371L458.182 259.792H458.396L460.341 259.767L462.249 259.754L464.119 259.729L465.957 259.704L467.751 259.691L469.514 259.672L471.245 259.647H472.939L474.601 259.622L476.225 259.603L477.812 259.584L479.373 259.572L480.89 259.553L482.376 259.534H483.831L485.241 259.515H486.632L487.98 259.496L489.289 259.483H490.573L491.82 259.471H494.2L495.339 259.458H496.454L497.524 259.446H500.527L501.459 259.427L501.987 259.439H502.567H503.196H504.638L505.438 259.452H506.294L507.2 259.465H509.177L510.248 259.477L511.368 259.49L512.546 259.502H513.773L515.058 259.528H516.392L517.784 259.546L519.225 259.565L520.724 259.578L522.273 259.597L523.878 259.616L525.54 259.635H527.259L529.028 259.666L530.854 259.685L532.724 259.698L534.656 259.723L536.639 259.748L538.679 259.76L540.769 259.786L542.916 259.805L543.697 259.817L544.238 258.577L545.353 256.065L546.467 253.546L547.581 251.035L548.69 248.554L549.791 246.086L550.893 243.618L551.989 241.175L553.09 238.733L554.186 236.309L555.281 233.897L556.37 231.505L557.46 229.138L558.542 226.771L559.625 224.41L560.708 222.08L561.797 219.757L562.868 217.434L563.944 215.149L565.015 212.863L566.091 210.59L567.155 208.343L568.219 206.095L569.289 203.867L570.353 201.644L571.411 199.428L572.462 197.243L573.52 195.065L574.572 192.887L575.635 190.734L576.681 188.599L577.726 186.471L578.311 185.256H676.349L678.364 186.679L679.358 189.355L680.334 191.999L681.291 194.631L682.235 197.231L683.167 199.818L684.086 202.368L684.987 204.924L685.874 207.449L686.75 209.929L687.6 212.41L688.449 214.853L689.281 217.289L690.093 219.707L690.886 222.099L691.673 224.466L692.441 226.821L693.196 229.15L693.939 231.442L694.663 233.734L695.381 235.988L696.074 238.229L696.754 240.445L697.421 242.636L698.076 244.814L698.718 246.974L699.341 249.108L699.964 251.217L700.556 253.307L701.135 255.366L701.702 257.399L702.256 259.421L702.357 259.805H702.621L704.541 259.779L706.418 259.754L708.275 259.742L710.101 259.716L711.895 259.691L713.658 259.679L715.389 259.66L717.089 259.635H718.764L720.407 259.609L722.025 259.59L723.611 259.572L725.166 259.559L726.69 259.54L728.182 259.521H729.643L731.084 259.502H732.488L733.873 259.483L735.214 259.471H736.53L737.821 259.458H740.302L741.504 259.446H742.675L743.814 259.433H747.051L748.077 259.414V259.427H748.543L748.587 259.458ZM662.549 133.606H602.903L600.97 130.496L614.783 102.077L615.324 100.95L615.884 99.7787L616.451 98.6076L617.024 97.4114L617.597 96.2025L618.182 94.956L618.787 93.7031L619.391 92.4252L620.008 91.1281L620.631 89.8124L621.261 88.4713L621.891 87.1241L622.539 85.7454L623.194 84.3413L623.836 82.9185L624.503 81.4831L625.177 80.035L625.869 78.5618L626.556 77.0635L627.254 75.5524L627.96 74.01L628.671 72.4612L629.389 70.8936L630.126 69.2945L630.862 67.6765L631.599 66.0396L632.348 64.3901L633.11 62.7028L633.878 61.0155L634.646 59.2967L635.433 57.5654L636.22 55.8214L640.249 56.0797L640.387 56.5581L640.583 57.1562L640.803 57.8865L641.074 58.7365L641.37 59.6935L641.716 60.7636L642.1 61.9725L642.528 63.2946L642.988 64.7363L643.491 66.2915L644.033 67.9724L644.612 69.7729L645.235 71.6932L645.896 73.7268L646.595 75.8988L647.338 78.1715L648.119 80.5576L648.931 83.0759L649.793 85.7075L650.694 88.4713L651.638 91.336L652.614 94.3327L653.634 97.4429L654.685 100.673L655.781 104.022L656.914 107.485L658.091 111.067L659.306 114.769L660.559 118.584L661.856 122.531L663.184 126.592L664.563 130.773L662.511 133.606H662.549Z" fill="#FF6507"/>
<path d="M1843.61 139.894C1844.15 130.898 1844.59 118.756 1845.01 103.475L1865.71 103.784C1867.91 103.784 1873.72 103.683 1883.18 103.475C1882.64 110.779 1882.04 122.94 1881.37 139.894L1863.89 139.699C1862.62 139.699 1855.88 139.769 1843.61 139.894ZM1826.71 107.835C1826.37 110.509 1825.58 115.46 1824.31 122.6L1821.71 138.699C1811.19 141.228 1800.91 142.505 1790.87 142.505C1783.62 142.505 1777.19 141.775 1771.72 140.303C1765.21 138.548 1759.39 135.459 1754.24 131.03C1748.96 126.45 1745.09 121.071 1742.7 114.824C1739.81 107.558 1738.38 99.3485 1738.38 90.3208C1738.38 82.0229 1739.78 73.9766 1742.59 66.2952C1745.4 58.5698 1749.55 52.222 1755.04 47.2458C1760.51 42.2318 1766.62 38.8662 1773.3 37.1802C1780 35.4753 1787.37 34.6133 1795.5 34.6133C1800.22 34.6133 1805.02 34.8462 1809.85 35.3558C1814.65 35.8842 1820.61 36.941 1827.71 38.627L1827.91 40.9296C1828.12 43.3642 1828.26 45.8115 1828.36 48.3405C1828.46 50.8443 1828.66 54.8015 1829.01 60.2307L1829.63 69.1829C1820.06 65.8549 1811.6 64.1687 1804.24 64.1687C1798.96 64.1687 1794.3 65.2068 1790.33 67.2137C1786.35 69.2834 1783.4 72.2402 1781.49 76.0778C1779.6 79.9216 1778.64 84.426 1778.64 89.5029C1778.64 94.6868 1779.5 99.0151 1781.2 102.482C1782.89 105.979 1785.63 108.577 1789.37 110.333C1793.14 112.082 1797.25 112.937 1801.74 112.937C1804 112.937 1806.7 112.717 1809.79 112.264C1812.91 111.78 1815.61 111.257 1817.95 110.679C1820.23 110.144 1823.19 109.175 1826.72 107.835H1826.71ZM1603.01 139.894C1604.97 124.683 1606.44 107.867 1607.47 89.4653C1608.53 71.0702 1609.15 53.6312 1609.35 37.2178C1617.37 37.3563 1624.3 37.4192 1630.13 37.4192C1636.87 37.4192 1643.35 37.3563 1649.58 37.2178L1648.6 50.882C1650.78 48.4096 1652.7 46.4532 1654.32 45.0126C1655.93 43.5782 1657.92 42.169 1660.28 40.7787C1662.64 39.4072 1665.17 38.2811 1667.85 37.4192C1670.52 36.5699 1673.47 35.8842 1676.65 35.3558C1679.8 34.8462 1683.13 34.6133 1686.62 34.6133C1691.45 34.6133 1696.15 35.123 1700.74 36.1485C1705.3 37.218 1709.14 38.6963 1712.22 40.5836C1715.3 42.5087 1717.87 44.8741 1719.96 47.7177C1722.01 50.5612 1723.39 53.6628 1724.07 56.9216C1724.71 60.2244 1725.05 63.6152 1725.05 67.0816C1725.05 69.6232 1724.79 75.1089 1724.27 83.5578L1722.56 119.977C1722.25 127.155 1722.09 133.786 1722.09 139.888C1715.3 139.762 1708.99 139.693 1703.1 139.693C1695.12 139.693 1687.85 139.762 1681.31 139.888C1681.92 133.786 1682.54 124.72 1683.22 112.717C1683.88 100.651 1684.22 92.1829 1684.22 87.301C1684.22 79.714 1682.75 74.4233 1679.83 71.4539C1676.96 68.4468 1673.29 66.9871 1668.87 66.9871C1665 66.9871 1661.33 68.2517 1657.87 70.7933C1654.44 73.3601 1651.77 77.0404 1649.88 81.9159C1648.04 86.7852 1646.7 94.7875 1645.94 105.898C1645.15 117.02 1644.64 128.363 1644.36 139.888C1637.68 139.762 1631.14 139.693 1624.8 139.693C1618.12 139.693 1610.85 139.762 1603.01 139.888L1603.01 139.894ZM1537.91 139.894C1541.78 86.0618 1543.73 44.635 1543.73 15.5829L1543.63 2.61085C1555.34 2.75554 1563.16 2.83086 1567.1 2.83086C1568.92 2.83086 1576.12 2.75554 1588.68 2.61085C1587.49 17.6968 1586.53 31.9711 1585.77 45.4591C1584.86 64.2443 1584.2 81.7839 1583.8 98.1155C1583.38 114.422 1583.21 128.369 1583.21 139.894L1562.61 139.699C1558.6 139.699 1550.35 139.769 1537.9 139.894H1537.91ZM1454.73 165.65L1466.89 130.728L1472.31 114.831C1481.6 114.963 1488.42 115.032 1492.69 115.032C1496.09 115.032 1502.56 114.963 1512.06 114.831C1508.7 120.537 1505.27 126.262 1501.72 132.037C1498.18 137.806 1494.73 143.631 1491.33 149.545C1487.94 155.44 1484.79 160.768 1481.84 165.53C1475.95 165.398 1471.53 165.329 1468.58 165.329C1464.92 165.329 1460.29 165.424 1454.73 165.65ZM1377.21 65.4773C1376.67 68.4971 1376.3 70.9695 1376.08 72.8946C1375.88 74.7756 1375.71 77.3549 1375.5 80.6137C1375.29 83.8724 1375.19 86.4455 1375.19 88.4021C1375.19 93.8942 1376.04 98.4929 1377.72 102.223C1379.44 105.948 1381.8 108.829 1384.85 110.886C1387.9 112.912 1391.16 113.937 1394.65 113.937C1398.32 113.937 1401.71 112.881 1404.76 110.773C1407.84 108.647 1410.28 105.501 1412.1 101.267C1413.91 97.0459 1414.8 92.2711 1414.8 86.9929C1414.8 79.8085 1412.92 74.0458 1409.16 69.6861C1405.38 65.3201 1399.86 63.1623 1392.67 63.1623C1388.11 63.1623 1382.97 63.911 1377.21 65.4649V65.4773ZM1330.92 186.958C1332.2 173.218 1333.25 159.504 1334.15 145.827C1335.68 122.418 1336.75 102.783 1337.3 86.9677C1337.89 71.1079 1338.15 55.3802 1338.15 39.8287C1351.77 37.7652 1362.39 36.3686 1370.09 35.6829C1377.78 34.9531 1385.48 34.6197 1393.16 34.6197C1402.78 34.6197 1411.66 35.6073 1419.75 37.6268C1427.87 39.621 1434.38 43.1945 1439.28 48.2714C1444.22 53.386 1447.89 59.4568 1450.38 66.5027C1452.85 73.5236 1454.09 80.8842 1454.09 88.6096C1454.09 95.643 1453.1 102.481 1451.08 109.074C1449.09 115.661 1445.99 121.631 1441.86 126.91C1437.72 132.213 1432.94 136.126 1427.57 138.699C1422.19 141.228 1416.16 142.505 1409.55 142.505C1406.28 142.505 1402.86 142.184 1399.36 141.543C1395.87 140.914 1392.51 139.989 1389.4 138.8C1386.24 137.56 1383.61 136.352 1381.51 135.132C1379.39 133.893 1376.79 132.068 1373.63 129.741L1372.51 157.773C1372.02 170.651 1371.78 180.409 1371.78 186.964C1364.04 186.832 1357.39 186.763 1351.8 186.763C1347.01 186.763 1340.05 186.832 1330.94 186.964L1330.92 186.958ZM1313.86 139.894C1306.22 139.769 1299.85 139.699 1294.77 139.699C1288.47 139.699 1282.16 139.769 1275.79 139.894L1275.66 126.142C1273.26 129.143 1271.2 131.389 1269.52 132.899C1267.87 134.402 1266.02 135.742 1264.06 136.868C1262.08 138.007 1259.89 139.007 1257.45 139.831C1254.99 140.687 1252.18 141.335 1249.03 141.788C1245.84 142.266 1242.62 142.518 1239.33 142.518C1234.05 142.518 1229.05 141.901 1224.32 140.662C1219.59 139.423 1215.44 137.321 1211.88 134.371C1208.27 131.42 1205.84 128.055 1204.55 124.318C1203.24 120.574 1202.59 116.215 1202.59 111.226C1202.59 110.043 1202.69 108.143 1202.9 105.602L1204.51 82.7714C1204.99 74.398 1205.4 65.0936 1205.81 54.9335C1206.08 48.6865 1206.21 42.7792 1206.21 37.2242C1214.51 37.3626 1221.57 37.4256 1227.39 37.4256C1233.28 37.4256 1239.76 37.3626 1246.86 37.2242L1243.77 75.5368C1243.31 81.3686 1243.06 85.3509 1243.02 87.4521C1242.98 89.5848 1242.95 90.9751 1242.95 91.7427C1242.95 98.7824 1244.39 103.513 1247.23 106.017C1250.08 108.483 1253.47 109.735 1257.45 109.735C1259.06 109.735 1260.63 109.49 1262.25 109.012C1263.86 108.571 1265.41 107.879 1266.87 107.03C1268.13 106.199 1269.34 105.212 1270.41 104.01C1271.54 102.733 1272.56 101.198 1273.41 99.3799C1274.48 97.1781 1275.3 94.8125 1275.82 92.2332C1276.57 88.7039 1277.15 84.1996 1277.53 78.7704C1277.8 74.8322 1278.14 67.9623 1278.62 58.2363L1279.38 37.2369C1288.01 37.3753 1295.11 37.4381 1300.66 37.4381C1306.89 37.4381 1313.13 37.3753 1319.43 37.2369C1317.9 54.2605 1316.7 70.4724 1315.83 85.81C1314.98 101.167 1314.3 119.216 1313.86 139.913L1313.86 139.894ZM1129.67 64.1687C1125.39 64.1687 1121.55 65.2697 1118.22 67.503C1114.87 69.6986 1112.33 72.9198 1110.66 77.1788C1108.94 81.4316 1108.09 86.1122 1108.09 91.1198C1108.09 98.4993 1109.94 104.117 1113.6 108.074C1117.27 111.987 1121.9 113.944 1127.45 113.944C1131.67 113.944 1135.46 112.811 1138.79 110.591C1142.15 108.313 1144.68 105.023 1146.36 100.632C1148.07 96.2344 1148.94 91.5351 1148.94 86.4833C1148.94 82.3312 1148.25 78.588 1146.92 75.2223C1145.58 71.9069 1143.38 69.1828 1140.37 67.1949C1137.32 65.1754 1133.76 64.1751 1129.68 64.1751L1129.67 64.1687ZM1130.35 34.6133C1138.64 34.6133 1146.63 35.8842 1154.31 38.4195C1161.99 40.9925 1168.46 44.6289 1173.74 49.4415C1179.02 54.2416 1182.92 59.8343 1185.42 66.2198C1187.92 72.6366 1189.19 79.5065 1189.19 86.8859C1189.19 94.064 1188.06 100.89 1185.83 107.344C1183.57 113.824 1179.81 119.87 1174.43 125.544C1169.07 131.206 1162.26 135.459 1154.01 138.277C1145.75 141.096 1137.01 142.505 1127.76 142.505C1119.26 142.505 1111.11 141.272 1103.25 138.793C1095.44 136.29 1088.9 132.679 1083.62 127.916C1078.38 123.16 1074.43 117.461 1071.8 110.805C1069.16 104.18 1067.82 97.222 1067.82 89.9055C1067.82 82.589 1069.12 75.6248 1071.69 69.0003C1074.26 62.3444 1078.34 56.4056 1083.92 51.0771C1089.51 45.8052 1096.42 41.7224 1104.66 38.8599C1112.89 36.0164 1121.45 34.6133 1130.35 34.6133ZM984.751 139.894L987.874 95.2341L988.862 69.5916C988.938 64.9929 988.969 60.262 988.969 55.4116C988.969 50.5423 988.9 44.4777 988.768 37.2178C996.846 37.3563 1003.29 37.4192 1008.02 37.4192C1013.57 37.4192 1019.98 37.3563 1027.21 37.2178L1026.81 48.5858C1029.41 45.6353 1031.54 43.4334 1033.22 41.9928C1034.89 40.5521 1036.81 39.2437 1038.94 38.0735C1041.1 36.9097 1043.32 36.0227 1045.69 35.4754C1048.02 34.8777 1050.45 34.6133 1053.03 34.6133C1055.43 34.6133 1058.1 34.9468 1061.03 35.6011C1061.11 42.905 1061.28 48.957 1061.55 53.7319L1062.23 69.2205C1058.57 68.1448 1055.11 67.6038 1051.91 67.6038C1047.87 67.6038 1044.41 68.1763 1041.54 69.3401C1038.62 70.5166 1036.05 72.2968 1033.79 74.6622C1031.57 77.0717 1029.78 80.0223 1028.45 83.5956C1027.11 87.1312 1026.15 92.7554 1025.64 100.481C1025.09 108.181 1024.81 116.995 1024.81 126.91C1024.81 130.426 1024.95 134.742 1025.22 139.888C1018.71 139.762 1012.21 139.693 1005.65 139.693C999.15 139.693 992.187 139.762 984.757 139.888L984.751 139.894ZM906.243 59.8406C915.429 59.979 924.162 60.0481 932.46 60.0481C946.646 60.0481 957.784 59.979 965.799 59.8406C964.905 69.0444 964.023 82.0229 963.129 98.8641C962.204 115.686 961.656 128.394 961.454 136.975C953.773 138.384 947.401 139.416 942.326 140.027C937.296 140.674 931.188 141.228 924.099 141.744C917.009 142.254 910.7 142.505 905.153 142.505C896.037 142.505 887.09 141.775 878.319 140.303C869.542 138.825 861.697 136.415 854.771 133.157C847.851 129.873 842.097 125.393 837.469 119.763C832.841 114.145 829.271 107.489 826.778 99.7574C824.278 92.0257 823 84.0676 823 75.8263C823 62.1935 826.4 49.561 833.15 37.9036C839.905 26.2589 849.633 17.0236 862.308 10.1915C874.988 3.39714 891.403 0 911.481 0C926.151 0 942.358 1.79301 960.17 5.32229C960.17 15.1049 960.617 25.9884 961.473 37.9981C956.644 36.3876 952.772 35.1859 949.788 34.3303C946.803 33.4999 943.309 32.7197 939.336 32.034C935.363 31.3042 931.56 30.7947 927.996 30.4927C924.401 30.1467 921.215 29.9643 918.401 29.9643C911.041 29.9643 904.083 31.04 897.504 33.1224C890.955 35.2613 885.301 38.5138 880.598 42.8798C875.876 47.2709 872.344 52.524 870.014 58.6389C867.653 64.7538 866.476 71.1645 866.476 77.9274C866.476 84.8601 867.81 91.0066 870.493 96.3792C873.162 101.777 877.412 105.891 883.236 108.722C889.06 111.534 895.571 112.931 902.736 112.931C908.698 112.931 915.209 112.075 922.304 110.326L923.432 88.5027C919.087 88.2825 916.512 88.1882 915.687 88.1882L905.028 88.2825L905.752 75.9332C905.783 74.5932 905.884 72.6365 906.022 70.1327C906.161 67.6288 906.23 64.1876 906.23 59.8279L906.243 59.8406Z" fill="#044589"/>
<path d="M1467.19 232.189H1484.54C1484.31 229.57 1483.65 227.586 1482.55 226.295C1480.88 224.267 1478.7 223.241 1476.04 223.241C1473.62 223.241 1471.58 224.053 1469.93 225.678C1468.28 227.303 1467.37 229.481 1467.19 232.196M1484.48 240.735L1489.93 241.402C1489.06 244.601 1487.48 247.076 1485.16 248.846C1482.84 250.596 1479.87 251.478 1476.26 251.478C1471.71 251.478 1468.12 250.067 1465.46 247.271C1462.79 244.469 1461.46 240.521 1461.46 235.458C1461.46 230.199 1462.81 226.131 1465.5 223.241C1468.2 220.344 1471.68 218.896 1475.98 218.896C1480.13 218.896 1483.52 220.313 1486.15 223.165C1488.78 225.986 1490.11 229.985 1490.11 235.13C1490.11 235.445 1490.1 235.917 1490.08 236.528H1466.9C1467.09 239.966 1468.06 242.592 1469.79 244.412C1471.53 246.232 1473.69 247.152 1476.29 247.152C1478.22 247.152 1479.86 246.642 1481.23 245.603C1482.6 244.601 1483.68 242.977 1484.48 240.747L1484.48 240.735ZM1435.64 250.779V207.73H1440.9V250.779H1435.64ZM1393.04 235.357C1393.04 239.381 1393.85 242.341 1395.47 244.249C1397.09 246.176 1399.06 247.139 1401.36 247.139C1403.69 247.139 1405.7 246.157 1407.37 244.142C1409.04 242.171 1409.87 239.085 1409.87 234.916C1409.87 230.93 1409.05 227.97 1407.42 225.986C1405.8 224.015 1403.85 223.02 1401.59 223.02C1399.33 223.02 1397.36 224.072 1395.63 226.163C1393.91 228.285 1393.04 231.345 1393.04 235.357ZM1388.29 262.725V219.595H1393.08V223.644C1394.21 222.057 1395.49 220.86 1396.91 220.079C1398.33 219.292 1400.06 218.889 1402.08 218.889C1404.74 218.889 1407.08 219.576 1409.1 220.942C1411.14 222.315 1412.67 224.242 1413.7 226.736C1414.74 229.236 1415.25 231.975 1415.25 234.96C1415.25 238.147 1414.68 241.012 1413.53 243.575C1412.39 246.132 1410.75 248.077 1408.57 249.444C1406.39 250.791 1404.1 251.478 1401.7 251.478C1399.94 251.478 1398.38 251.113 1396.98 250.357C1395.58 249.62 1394.45 248.676 1393.55 247.548V262.725H1388.29ZM1324.22 250.779V219.601H1328.92V223.965C1329.91 222.441 1331.2 221.207 1332.82 220.294C1334.44 219.355 1336.29 218.889 1338.35 218.889C1340.64 218.889 1342.54 219.362 1344 220.325C1345.48 221.282 1346.52 222.617 1347.12 224.343C1349.58 220.703 1352.78 218.889 1356.71 218.889C1359.79 218.889 1362.16 219.746 1363.83 221.465C1365.48 223.178 1366.31 225.804 1366.31 229.362V250.773H1361.08V231.125C1361.08 229.022 1360.91 227.491 1360.57 226.566C1360.22 225.64 1359.61 224.872 1358.71 224.318C1357.81 223.751 1356.75 223.461 1355.55 223.461C1353.36 223.461 1351.55 224.192 1350.11 225.665C1348.67 227.114 1347.94 229.45 1347.94 232.655V250.773H1342.67V230.521C1342.67 228.165 1342.24 226.396 1341.39 225.224C1340.53 224.047 1339.13 223.461 1337.17 223.461C1335.69 223.461 1334.33 223.852 1333.06 224.645C1331.81 225.432 1330.89 226.566 1330.33 228.077C1329.75 229.582 1329.48 231.767 1329.48 234.589V250.766H1324.21L1324.22 250.779ZM1296.78 250.779V219.601H1302.06V250.779H1296.78ZM1241.38 236.944L1246.74 236.471C1246.99 238.631 1247.58 240.388 1248.51 241.774C1249.44 243.165 1250.86 244.268 1252.82 245.124C1254.76 245.98 1256.97 246.39 1259.41 246.39C1261.57 246.39 1263.48 246.075 1265.13 245.432C1266.79 244.79 1268.03 243.909 1268.84 242.781C1269.65 241.648 1270.06 240.42 1270.06 239.091C1270.06 237.737 1269.67 236.56 1268.88 235.558C1268.1 234.544 1266.81 233.694 1265.03 233.014C1263.87 232.561 1261.33 231.868 1257.39 230.917C1253.46 229.973 1250.69 229.078 1249.12 228.228C1247.06 227.145 1245.54 225.81 1244.54 224.217C1243.54 222.624 1243.04 220.835 1243.04 218.858C1243.04 216.685 1243.65 214.651 1244.88 212.768C1246.1 210.873 1247.89 209.443 1250.26 208.467C1252.62 207.485 1255.24 207 1258.12 207C1261.31 207 1264.1 207.51 1266.54 208.549C1268.97 209.55 1270.83 211.074 1272.14 213.071C1273.44 215.06 1274.15 217.334 1274.26 219.847L1268.81 220.262C1268.51 217.554 1267.53 215.483 1265.84 214.097C1264.15 212.693 1261.67 212.013 1258.37 212.013C1254.93 212.013 1252.44 212.642 1250.86 213.914C1249.29 215.168 1248.51 216.692 1248.51 218.467C1248.51 220.023 1249.07 221.295 1250.17 222.29C1251.27 223.285 1254.12 224.311 1258.73 225.344C1263.34 226.402 1266.5 227.309 1268.23 228.096C1270.73 229.248 1272.56 230.716 1273.76 232.479C1274.95 234.261 1275.54 236.289 1275.54 238.6C1275.54 240.911 1274.89 243.058 1273.58 245.073C1272.27 247.101 1270.4 248.676 1267.95 249.815C1265.51 250.936 1262.75 251.503 1259.7 251.503C1255.82 251.503 1252.56 250.936 1249.93 249.79C1247.32 248.651 1245.25 246.95 1243.76 244.67C1242.28 242.391 1241.48 239.815 1241.41 236.931L1241.38 236.944ZM1173.75 250.779V212.819H1159.62V207.73H1193.62V212.819H1179.43V250.779H1173.75ZM1133.01 250.779V207.73H1138.68V250.779H1133.01ZM1056.48 234.626C1056.48 238.713 1057.29 241.705 1058.92 243.575C1060.55 245.47 1062.57 246.39 1065.01 246.39C1067.42 246.39 1069.45 245.47 1071.1 243.6C1072.73 241.73 1073.55 238.795 1073.55 234.796C1073.55 230.986 1072.71 228.115 1071.02 226.175C1069.33 224.242 1067.3 223.272 1064.92 223.272C1062.59 223.272 1060.6 224.217 1058.94 226.131C1057.31 228.033 1056.49 230.886 1056.49 234.633L1056.48 234.626ZM1052.14 253.367L1057.26 254.123C1057.46 255.71 1058.06 256.856 1059.03 257.599C1060.34 258.562 1062.12 259.054 1064.39 259.054C1066.84 259.054 1068.71 258.562 1070.03 257.599C1071.37 256.617 1072.25 255.237 1072.72 253.481C1073 252.416 1073.12 250.155 1073.1 246.705C1070.81 249.419 1067.94 250.779 1064.5 250.779C1060.23 250.779 1056.93 249.23 1054.59 246.15C1052.25 243.058 1051.08 239.337 1051.08 235.017C1051.08 232.038 1051.61 229.292 1052.68 226.78C1053.76 224.267 1055.32 222.315 1057.35 220.942C1059.39 219.576 1061.79 218.889 1064.54 218.889C1068.2 218.889 1071.23 220.369 1073.61 223.354V219.595H1078.47V246.541C1078.47 251.39 1077.97 254.841 1076.98 256.868C1076 258.896 1074.44 260.496 1072.3 261.667C1070.17 262.845 1067.54 263.437 1064.41 263.437C1060.71 263.437 1057.71 262.593 1055.44 260.924C1053.15 259.243 1052.05 256.724 1052.14 253.367ZM1005.62 250.779V219.601H1010.36V224.034C1012.65 220.602 1015.94 218.896 1020.25 218.896C1022.12 218.896 1023.84 219.236 1025.41 219.903C1026.98 220.583 1028.15 221.471 1028.93 222.573C1029.72 223.669 1030.25 224.966 1030.58 226.465C1030.76 227.447 1030.86 229.167 1030.86 231.604V250.779H1025.59V231.811C1025.59 229.658 1025.4 228.039 1024.98 226.975C1024.57 225.905 1023.84 225.048 1022.81 224.431C1021.75 223.782 1020.54 223.467 1019.13 223.467C1016.89 223.467 1014.96 224.192 1013.32 225.621C1011.68 227.051 1010.88 229.752 1010.88 233.745V250.779H1005.61H1005.62ZM978.183 250.779V219.601H983.455V250.779H978.183ZM934.076 250.779V207.73H939.348V232.271L951.81 219.595H958.611L946.74 231.15L959.825 250.773H953.32L943.053 234.834L939.341 238.424V250.773H934.069L934.076 250.779ZM906.407 235.124C904.495 235.911 901.626 236.572 897.814 237.133C895.643 237.429 894.108 237.787 893.215 238.178C892.315 238.562 891.617 239.135 891.133 239.891C890.648 240.646 890.397 241.478 890.397 242.391C890.397 243.808 890.931 244.979 891.988 245.924C893.045 246.849 894.605 247.328 896.65 247.328C898.676 247.328 900.488 246.881 902.067 245.993C903.639 245.099 904.809 243.883 905.558 242.334C906.118 241.157 906.401 239.381 906.401 237.051V235.111L906.407 235.124ZM906.854 246.925C904.897 248.6 903.017 249.765 901.224 250.458C899.412 251.138 897.474 251.478 895.411 251.478C892.001 251.478 889.377 250.647 887.54 248.972C885.716 247.297 884.798 245.155 884.798 242.567C884.798 241.024 885.137 239.633 885.835 238.373C886.521 237.114 887.433 236.094 888.547 235.338C889.679 234.57 890.938 233.997 892.341 233.606C893.372 233.335 894.932 233.071 897.015 232.813C901.274 232.296 904.407 231.704 906.414 230.986C906.433 230.269 906.445 229.809 906.445 229.607C906.445 227.46 905.948 225.942 904.948 225.054C903.608 223.864 901.601 223.272 898.959 223.272C896.486 223.272 894.656 223.701 893.467 224.57C892.284 225.451 891.422 226.988 890.856 229.204L885.716 228.48C886.182 226.282 886.949 224.494 888.019 223.134C889.088 221.767 890.642 220.722 892.68 219.991C894.7 219.255 897.053 218.889 899.726 218.889C902.375 218.889 904.526 219.204 906.181 219.821C907.842 220.47 909.062 221.238 909.842 222.189C910.616 223.153 911.157 224.33 911.484 225.779C911.654 226.685 911.742 228.31 911.742 230.653V237.693C911.742 242.611 911.855 245.735 912.088 247.026C912.302 248.317 912.749 249.564 913.416 250.766H907.917C907.37 249.671 907.011 248.392 906.867 246.919L906.854 246.925ZM823.006 250.779V207.73H831.556L841.703 238.216C842.641 241.043 843.333 243.178 843.748 244.589C844.239 243.027 845 240.735 846.032 237.681L856.299 207.73H863.936V250.779H858.463V214.752L846 250.779H840.879L828.473 214.141V250.779H823.006Z" fill="#383836"/>
</svg>
